<?xml version="1.0" encoding="UTF-8" standalone="no"?>
<!-- Created with Inkscape (http://www.inkscape.org/) -->
<svg
   xmlns:dc="http://purl.org/dc/elements/1.1/"
   xmlns:cc="http://creativecommons.org/ns#"
   xmlns:rdf="http://www.w3.org/1999/02/22-rdf-syntax-ns#"
   xmlns:svg="http://www.w3.org/2000/svg"
   xmlns="http://www.w3.org/2000/svg"
   xmlns:sodipodi="http://sodipodi.sourceforge.net/DTD/sodipodi-0.dtd"
   xmlns:inkscape="http://www.inkscape.org/namespaces/inkscape"
   width="400"
   height="132.07448"
   id="svg2988"
   sodipodi:version="0.32"
   inkscape:version="0.46"
   version="1.0"
   sodipodi:docname="Logo UQAM.svg"
   inkscape:output_extension="org.inkscape.output.svg.inkscape">
  <defs
     id="defs2990">
    <clipPath
       clipPathUnits="userSpaceOnUse"
       id="clipPath2948">
      <path
         d="M 36,36 L 207.702,36 L 207.702,112.533 L 36,112.533 L 36,36 z"
         id="path2950" />
    </clipPath>
    <clipPath
       clipPathUnits="userSpaceOnUse"
       id="clipPath2964">
      <path
         d="M 46.801,42.818 L 173.299,42.818 L 173.299,84.586 L 46.801,84.586 L 46.801,42.818 z"
         id="path2966" />
    </clipPath>
    <clipPath
       clipPathUnits="userSpaceOnUse"
       id="clipPath2980">
      <path
         d="M 36,36 L 207.702,36 L 207.702,112.533 L 36,112.533 L 36,36 z"
         id="path2982" />
    </clipPath>
    <inkscape:perspective
       sodipodi:type="inkscape:persp3d"
       inkscape:vp_x="0 : 526.18109 : 1"
       inkscape:vp_y="0 : 1000 : 0"
       inkscape:vp_z="744.09448 : 526.18109 : 1"
       inkscape:persp3d-origin="372.04724 : 350.78739 : 1"
       id="perspective2996" />
  </defs>
  <sodipodi:namedview
     id="base"
     pagecolor="#ffffff"
     bordercolor="#666666"
     borderopacity="1.0"
     inkscape:pageopacity="0.0"
     inkscape:pageshadow="2"
     inkscape:zoom="0.35"
     inkscape:cx="375"
     inkscape:cy="-51.428571"
     inkscape:document-units="px"
     inkscape:current-layer="layer1"
     showgrid="false"
     inkscape:window-width="1280"
     inkscape:window-height="750"
     inkscape:window-x="-8"
     inkscape:window-y="-8" />
  <metadata
     id="metadata2993">
    <rdf:RDF>
      <cc:Work
         rdf:about="">
        <dc:format>image/svg+xml</dc:format>
        <dc:type
           rdf:resource="http://purl.org/dc/dcmitype/StillImage" />
      </cc:Work>
    </rdf:RDF>
  </metadata>
  <g
     inkscape:label="Calque 1"
     inkscape:groupmode="layer"
     id="layer1"
     transform="translate(-492.36788,-129.2496)">
    <g
       id="g2944"
       style="fill:#004e83;fill-opacity:1"
       transform="matrix(3.1621279,0,0,-3.1621279,344.37649,396.7185)">
      <g
         id="g2946"
         clip-path="url(#clipPath2948)"
         style="fill:#004e83;fill-opacity:1">
        <g
           id="g2952"
           transform="translate(91.949707,75.009506)"
           style="fill:#004e83;fill-opacity:1">
          <path
             d="M 0,0 C -6.576,0.033 -9.008,-6.167 -9.039,-12.338 C -9.073,-18.919 -5.659,-24.113 -0.087,-24.149 C 5.62,-24.187 8.87,-18.97 9.088,-12.326 C 9.292,-6.089 6.649,-0.033 0,0 M 20.596,-31.132 C 18.03,-31.418 16.08,-31.679 13.405,-32.192 C 11.338,-31.511 3.54,-28.25 -0.78,-26.895 C -12.149,-26.793 -15.703,-18.9 -15.691,-12.367 C -15.678,-4.863 -10.671,2.555 -0.023,2.547 C 11.166,2.539 15.807,-4.896 15.776,-12.334 C 15.748,-18.954 10.824,-24.969 5.28,-26.053 C 5.874,-26.158 5.765,-26.001 7.14,-26.444 C 8.029,-26.73 18.64,-30.151 20.596,-30.792 L 20.596,-31.132 z"
             style="fill:#004e83;fill-opacity:1;fill-rule:nonzero;stroke:none"
             id="path2954" />
        </g>
        <g
           id="g2956"
           transform="translate(125.80811,60.1716)"
           style="fill:#004e83;fill-opacity:1">
          <path
             d="M 0,0 L -4.091,10.152 L -7.973,0 L 0,0 z M -9.168,-3.049 L -12.373,-11.39 L -17.126,-11.39 C -15.716,-7.928 -5.235,15.553 -4.723,16.835 L -1.472,16.835 C -0.574,15.168 10.069,-8.89 11.223,-11.39 L 4.577,-11.39 L 1.212,-3.049 L -9.168,-3.049 z"
             style="fill:#004e83;fill-opacity:1;fill-rule:nonzero;stroke:none"
             id="path2958" />
        </g>
      </g>
    </g>
    <g
       id="g2960"
       style="fill:#004e83;fill-opacity:1"
       transform="matrix(3.1621279,0,0,-3.1621279,344.37649,396.7185)">
      <g
         id="g2962"
         clip-path="url(#clipPath2964)"
         style="fill:#004e83;fill-opacity:1">
        <g
           id="g2968"
           transform="translate(156.3933,57.979202)"
           style="fill:#004e83;fill-opacity:1">
          <path
             d="M 0,0 L -9.146,19.028 L -12.995,19.028 L -16.85,-9.198 L -12.182,-9.198 L -10.515,9.385 C -9.81,8.359 -2.092,-8.34 -1.708,-9.237 L 0.146,-9.237 L 8.615,9.385 L 10.22,-9.198 L 16.905,-9.198 L 13.282,19.028 L 9.181,19.028 L 0,0 z"
             style="fill:#004e83;fill-opacity:1;fill-rule:nonzero;stroke:none"
             id="path2970" />
        </g>
        <g
           id="g2972"
           transform="translate(66.949204,77.007095)"
           style="fill:#004e83;fill-opacity:1">
          <path
             d="M 0,0 C 0,-3.526 0,-14.332 0,-15.871 C -0.001,-19.938 -0.889,-25.389 -6.958,-25.395 C -10.824,-25.4 -13.799,-23.288 -13.806,-18.097 C -13.808,-16.686 -13.806,-0.577 -13.806,0 L -20.144,0 C -20.144,-2.821 -20.153,-15.41 -20.144,-17.974 C -20.121,-25.268 -14.501,-28.67 -7.728,-28.724 C 1.074,-28.794 4.993,-23.69 5.009,-17.683 C 5.02,-13.516 5.009,0 5.009,0 L 0,0 z"
             style="fill:#004e83;fill-opacity:1;fill-rule:nonzero;stroke:none"
             id="path2974" />
        </g>
      </g>
    </g>
    <g
       id="g2976"
       style="fill:#004e83;fill-opacity:1"
       transform="matrix(3.1621279,0,0,-3.1621279,344.37649,396.7185)">
      <g
         id="g2978"
         clip-path="url(#clipPath2980)"
         style="fill:#004e83;fill-opacity:1">
        <g
           id="g2984"
           transform="translate(109.06351,83.5271)"
           style="fill:#004e83;fill-opacity:1">
          <path
             d="M 0,0 C 2.531,0.331 5.101,0.779 6.812,1.058 C 8.399,0.529 18.177,-3.202 20.1,-3.779 L 20.1,-4.053 C 18.563,-4.309 17.222,-4.61 15.257,-5.188 C 13.766,-4.708 1.298,-0.655 0,-0.271 L 0,0 z"
             style="fill:#004e83;fill-opacity:1;fill-rule:nonzero;stroke:none"
             id="path2986" />
        </g>
      </g>
    </g>
  </g>
</svg>
